<svg id="e87ddc62-7528-42a5-8b37-f74ed0351019" xmlns="http://www.w3.org/2000/svg" viewBox="0 0 657.02 638">
    <defs>
        <style>
            .cls-1 {
                fill: #f2f2f2;
            }

            .cls-2 {
                fill: #47465a;
            }

            .cls-3 {
                opacity: 0.1;
                isolation: isolate;
            }

            .cls-4 {
                fill: #7a799c;
            }

            .cls-5 {
                fill: #9493b6;
            }

            .cls-6 {
                fill: #552b06;
            }

            .cls-7 {
                fill: #fbbebe;
            }

            .cls-8 {
                fill: #08516b;
            }

            .cls-9 {
                fill: #552b06;
            }
        </style>
    </defs>
    <ellipse class="cls-1" cx="328.51" cy="540" rx="328.51" ry="98" />
    <polygon class="cls-2"
        points="176.21 217.41 208.25 432.38 215.18 432.38 215.94 430.79 218.15 426.18 190.41 225.37 186.2 223 176.21 217.41" />
    <polygon class="cls-3" points="186.2 223 215.94 430.79 218.15 426.18 190.41 225.37 186.2 223" />
    <polygon class="cls-2"
        points="128 510.23 136.23 513.78 138.23 514.65 140.88 506.69 186.2 229.75 181.49 228.34 171.59 225.37 128 510.23" />
    <polygon class="cls-3"
        points="136.23 513.78 138.23 514.65 140.88 506.69 186.2 229.75 181.49 228.34 136.23 513.78" />
    <polygon class="cls-2"
        points="520.66 217.41 527.93 496.07 536.25 498.55 536.84 498.73 539.15 492.98 534.53 220.06 530.08 219.21 520.66 217.41" />
    <polygon class="cls-3"
        points="530.08 219.21 536.25 498.55 536.84 498.73 539.15 492.98 534.53 220.06 530.08 219.21" />
    <polygon class="cls-2"
        points="477.4 594.71 486.01 596.7 486.98 596.92 489.62 589.4 531.56 225.37 530.35 224.88 523.96 222.27 477.4 594.71" />
    <polygon class="cls-3" points="486.01 596.7 486.98 596.92 489.62 589.4 531.56 225.37 530.35 224.88 486.01 596.7" />
    <path class="cls-4"
        d="M505,292.57,473,347.46c-2.24,3.82-5.8,5.81-9.4,5.24L331.94,332.06c-5.24-.83-9.19-6.77-9.19-13.84V277.53Z"
        transform="translate(-209.94 -97.73)" />
    <path class="cls-2" d="M397.05,301.42h-8.91v17.24c0,2.45,1.48,4.43,3.31,4.43h2.29c1.83,0,3.31-2,3.31-4.43h0V301.42Z"
        transform="translate(-209.94 -97.73)" />
    <path class="cls-4"
        d="M741.5,327.52,709.43,382.4c-2.23,3.82-5.79,5.81-9.39,5.25L568.39,367c-5.24-.82-9.19-6.77-9.19-13.83V312.48Z"
        transform="translate(-209.94 -97.73)" />
    <path class="cls-2" d="M633.51,336.36h-8.92V353.6c0,2.45,1.49,4.44,3.32,4.44h2.29c1.83,0,3.31-2,3.31-4.44h0V336.36Z"
        transform="translate(-209.94 -97.73)" />
    <path class="cls-2"
        d="M704.66,355.31,313.09,294.22c-3.16-.49-5.42-4.32-5-8.55a8,8,0,0,1,3.13-6l70-47.18c13.8-9.29,29.29-13.11,44.65-11L773.74,269c3.66.52,6.31,4.9,5.93,9.8a10.44,10.44,0,0,1-1.86,5.3L737.3,339.75C728.81,351.42,716.75,357.17,704.66,355.31Z"
        transform="translate(-209.94 -97.73)" />
    <path class="cls-2" d="M270,285.94l4.19-3.1s4.52,4.46,8.21,23.24-6.89.21-6.89.21l-4.62-12.83Z"
        transform="translate(-209.94 -97.73)" />
    <path class="cls-2"
        d="M314.82,458s4.29,27,6.28,34.51c1,3.68,5.66,7,10.85,9.62a58.55,58.55,0,0,0,14.24,5c5.62.89,77.61-14.15,112.62-24.33,23.58-6.85,26.63-14.71,26.11-19.1a7.34,7.34,0,0,0-1.34-3.45s-34.68-31.41-46.9-46.45-36.32-3.09-62.74,3.1S314.82,458,314.82,458Z"
        transform="translate(-209.94 -97.73)" />
    <path class="cls-2"
        d="M274.2,282.84S258,297,312.51,326.19c0,0,29.62,22.37,25.76,114.5a31.56,31.56,0,0,1-2.74,11.71c-5.62,12.38-17.67,43.73,2.41,47.63v7.07S301.61,482.77,297.65,462s-17.17-136.24-23.78-146.86S263,287.71,274.2,282.84Z"
        transform="translate(-209.94 -97.73)" />
    <path class="cls-3"
        d="M332,502.13a58.55,58.55,0,0,0,14.24,5c5.62.89,77.61-14.15,112.62-24.33,23.58-6.85,26.63-14.71,26.11-19.1-15.5,7.1-65.84,29.63-83.9,31.49-21.47,2.21-62.48,8.36-65.59,4.18C334.24,497.73,333,499.43,332,502.13Z"
        transform="translate(-209.94 -97.73)" />
    <path class="cls-2"
        d="M520.57,686.25l-31.38-192s-5.61-20.35-18.49-19.47l-11.89,8s19.81-6.19,24.11,14.16,31.7,189.32,31.7,189.32Z"
        transform="translate(-209.94 -97.73)" />
    <polygon class="cls-2" points="235.33 500.94 222.78 383.72 217.16 383.72 230.04 500.94 235.33 500.94" />
    <path class="cls-2"
        d="M325.06,713.23,337,530.1s0-15.48-5.95-23-25.13-29-25.13-29S301,476.58,297,491.62s-31.38,165.43-31.38,165.43l5.29,3.1,34-173.39,23.45,29.63s4.62,11.06,2.31,21.23-10.89,175.61-10.89,175.61Z"
        transform="translate(-209.94 -97.73)" />
    <polygon class="cls-2" points="151.77 404.95 122.05 416.45 115.45 408.05 132.62 404.95 151.77 404.95" />
    <path class="cls-4"
        d="M626,179.83l-4.82,96.82L515.78,262.94,520,168.29c.23-5.25,3.6-9.25,7.52-8.94l.17,0,91.79,10.34C623.31,170.14,626.2,174.64,626,179.83Z"
        transform="translate(-209.94 -97.73)" />
    <polygon class="cls-4"
        points="270.5 193.08 375.52 208.42 379.48 209 410.19 182.46 410.19 176.71 305.83 164.12 270.5 193.08" />
    <polygon class="cls-3" points="375.52 208.42 379.48 209 410.19 182.46 410.19 177.31 375.52 208.42" />
    <polygon class="cls-5" points="408.87 81.17 405.24 167.42 312.77 155.92 316.07 71.88 408.87 81.17" />
    <polygon class="cls-3" points="353.72 191.31 342.49 201.48 308.48 197.06 320.04 187.33 353.72 191.31" />
    <polygon class="cls-5" points="399.63 178.92 385.43 193.08 294.61 181.58 310.79 167.42 399.63 178.92" />
    <rect class="cls-6" x="171.42" y="48.21" width="67.04" height="89.79" />
    <rect class="cls-3" x="171.42" y="48.21" width="67.04" height="89.79" />
    <path class="cls-7"
        d="M425.32,187.5s-9.46,34.3,0,40.63-33.89,0-33.89,0l-12.22-13.19s27.59-10.56,23.65-34.83S425.32,187.5,425.32,187.5Z"
        transform="translate(-209.94 -97.73)" />
    <path class="cls-3"
        d="M425.32,187.5s-9.46,34.3,0,40.63-33.89,0-33.89,0l-12.22-13.19s27.59-10.56,23.65-34.83S425.32,187.5,425.32,187.5Z"
        transform="translate(-209.94 -97.73)" />
    <path class="cls-7"
        d="M503,531.61s-35.47,67-29.56,85.5,2.76,30.08,14.58,36.42,15,17.94,4.73,17.42-23.64-4.23-25.61-9-6.7-27.44-13.4-30.61-19.31-15.3-10.25-30.08,31.9-69.21,30.14-74.72S503,531.61,503,531.61Z"
        transform="translate(-209.94 -97.73)" />
    <path class="cls-5"
        d="M428.87,399.14s73.29,6.33,92.2,30.08-16.55,112.42-20.49,113.47-34.67-3.16-33.49-14.77,22.06-59.12,22.06-59.12S462,455.61,447,452.44s-31.52-17.94-31.52-17.94Z"
        transform="translate(-209.94 -97.73)" />
    <path class="cls-7" d="M462.36,384.36s-1.18,58.58-12.22,60.69,0-44.86,0-44.86l.4-17.94Z"
        transform="translate(-209.94 -97.73)" />
    <path class="cls-8"
        d="M428.87,230.77s20.49-7.91,24.43,13.2,5.12,93.94,5.12,93.94L465.51,396s-13-5.28-15.76-2.64l-16.55-28Z"
        transform="translate(-209.94 -97.73)" />
    <path class="cls-3"
        d="M428.87,230.77s20.49-7.91,24.43,13.2,5.12,93.94,5.12,93.94L465.51,396s-13-5.28-15.76-2.64l-16.55-28Z"
        transform="translate(-209.94 -97.73)" />
    <path class="cls-7"
        d="M400.87,542.85s-13.77,36.26-22.05,35.73-16.16-7.39-20.1,14.25.79,15.84-3.94,28.5-5.51,34.84,3.55,40.12,17.34,5.8,17.73,0-7.88-5.81,1.58-26.39,29.55-58.06,37.83-61.75S400.87,542.85,400.87,542.85Z"
        transform="translate(-209.94 -97.73)" />
    <path class="cls-5"
        d="M365,377.5s-28.37,63.33-9.85,81.8,73.69,53.84,73.69,53.84S399.31,540.05,397.74,549s14.18,33.25,19.7,33.78,21.67-24.28,39-30.62,28-51.72,9.06-68.61-36.65-44.86-36.65-44.86l5.52-40.63Z"
        transform="translate(-209.94 -97.73)" />
    <path class="cls-7"
        d="M389.62,166.29c0,22.44,17.17,41,33.93,41s30.34-18.2,30.34-40.64S440.3,126,423.55,126,389.62,143.84,389.62,166.29Z"
        transform="translate(-209.94 -97.73)" />
    <path class="cls-8"
        d="M415.86,225S388.67,209.13,388.67,207s-15.76,4.75-19.31,9-5.51,3.69-7.88,12.13,11.82,87.09,11.82,87.09-7.88,60.69-12.21,66.5S396.16,396,396.16,396s26,6.33,30.34,9,12.22,6.34,10.64,0-8.27-11.08,3.15-19c0,0-3.94-25.86,0-37.47s22.07-53.83,7.49-84.45-21.28-41.69-21.28-41.69S421.38,228.13,415.86,225Z"
        transform="translate(-209.94 -97.73)" />
    <path class="cls-7"
        d="M407.19,369.05s30.74,18.26,40,19.95,37.24,11.19,21.87,19.64-38.62-4.23-38.62-4.23l-32.7-18.47Z"
        transform="translate(-209.94 -97.73)" />
    <path class="cls-3"
        d="M374.1,223.35s-11.35-7.35-14.5,18.51-14.19,107.66,0,119.8,46.89,31.67,46.89,31.67,19.31-17.42,10.25-23.75S386,345.3,382.85,339s-6.34-77-.82-88.64S374.1,223.35,374.1,223.35Z"
        transform="translate(-209.94 -97.73)" />
    <path class="cls-8"
        d="M379.21,192.77s-15.76-1.05-18.91,24.81-14.19,107.67,0,119.81,46.89,31.66,46.89,31.66,19.31-17.41,10.25-23.75S386.7,321,383.55,314.69s2.36-72.31,7.88-83.92S379.21,192.77,379.21,192.77Z"
        transform="translate(-209.94 -97.73)" />
    <path class="cls-9"
        d="M431,98.24c4.84.88,10,3.25,12.46,8.92,1.19,2.77,1.58,6,2.49,9,2.54,8.15,8.69,13,13.12,19.55,5.79,8.5,8.66,21.32,5.25,31.88-1.32,4.09-3.47,7.6-5.09,11.48-4.54,10.85-4.79,23.87-4.91,36.3l-.26,24.44a46.55,46.55,0,0,0,.77,11.1c.84,3.56,2.71,6.89,5.37,8-6,2.8-12.71-.26-16.21-7.42-.73,6.25.9,12.59,4.35,16.9-7.22-2.28-13.28-9.31-17.1-17.84s-5.59-18.44-6.38-28.33c-.42-5.22-.57-10.63.67-15.62a56.15,56.15,0,0,1,3.82-9.83c3.71-8.15,7-16.83,8.24-26.24s0-19.74-4.57-27.07c-3.55-5.74-8.86-9-14.42-8.86-5.58.29-10.65,4.45-13.38,11-1.06,2.66-2.56,6.26-4.69,5.32a8.56,8.56,0,0,1-1.16-.76c-2.38-1.45-5.09,1.42-6.14,4.63C389.94,164.89,396,176,396.67,187c.59,10.26-3.68,19.93-8.78,27.61-8.82,13.22-20.33,22.7-33.12,27.25a9.37,9.37,0,0,0,4.81-4,47.7,47.7,0,0,1-15.5-1.74c5.54-5.6,11.13-11.24,15.76-18.17a55.34,55.34,0,0,0,9.29-24.52c1.34-12.35-2.09-25.73,1.83-37,3.59-10.35,12.49-16.13,15.75-26.68,3.3-10.71,5.44-20,14.18-24.68C410.44,99.92,420.71,96.36,431,98.24Z"
        transform="translate(-209.94 -97.73)" />
</svg>