<svg id="e87ddc62-7528-42a5-8b37-f74ed0351019" xmlns="http://www.w3.org/2000/svg" viewBox="0 0 880 638"><defs><style>.cls-1{fill:#f2f2f2;}.cls-2{fill:#47465a;}.cls-3{opacity:0.1;isolation:isolate;}.cls-4{fill:#7a799c;}.cls-5{fill:#9493b6;}.cls-6{fill:#ff6584;}.cls-7{fill:#fbbebe;}.cls-8{fill:#6c63ff;}.cls-9{fill:#552b06;}</style></defs><ellipse class="cls-1" cx="440" cy="540" rx="440" ry="98"/><polygon class="cls-2" points="643.98 217.41 601.08 432.38 591.79 432.38 590.77 430.79 587.81 426.18 624.96 225.37 630.6 223 643.98 217.41"/><polygon class="cls-3" points="630.6 223 590.77 430.79 587.81 426.18 624.96 225.37 630.6 223"/><polygon class="cls-2" points="708.56 510.23 697.53 513.78 694.85 514.65 691.31 506.69 630.6 229.75 636.92 228.34 650.18 225.37 708.56 510.23"/><polygon class="cls-3" points="697.53 513.78 694.85 514.65 691.31 506.69 630.6 229.75 636.92 228.34 697.53 513.78"/><polygon class="cls-2" points="182.64 217.41 172.91 496.07 161.75 498.55 160.96 498.73 157.87 492.98 164.06 220.06 170.02 219.21 182.64 217.41"/><polygon class="cls-3" points="170.02 219.21 161.75 498.55 160.96 498.73 157.87 492.98 164.06 220.06 170.02 219.21"/><polygon class="cls-2" points="240.58 594.71 229.04 596.7 227.75 596.92 224.22 589.4 168.04 225.37 169.66 224.88 178.21 222.27 240.58 594.71"/><polygon class="cls-3" points="229.04 596.7 227.75 596.92 224.22 589.4 168.04 225.37 169.66 224.88 229.04 596.7"/><path class="cls-4" d="M735.75,369.05l43,54.88a13.9,13.9,0,0,0,12.59,5.25L967.6,408.53a13.92,13.92,0,0,0,12.31-13.83V354Z" transform="translate(-251 -174.21)"/><path class="cls-2" d="M880.39,377.9h11.94v17.23a4.44,4.44,0,0,1-4.44,4.44h-3.06a4.43,4.43,0,0,1-4.44-4.44h0V377.9Z" transform="translate(-251 -174.21)"/><path class="cls-4" d="M419,404,462,458.88a14,14,0,0,0,12.59,5.25L650.9,443.48a13.93,13.93,0,0,0,12.3-13.84V389Z" transform="translate(-251 -174.21)"/><path class="cls-2" d="M563.68,412.84h11.94v17.24a4.43,4.43,0,0,1-4.43,4.44h-3.07a4.44,4.44,0,0,1-4.44-4.44h0V412.84Z" transform="translate(-251 -174.21)"/><path class="cls-2" d="M468.38,431.79,992.84,370.7a7.71,7.71,0,0,0,2.58-14.55L901.6,309a108.66,108.66,0,0,0-59.8-11L375.86,345.46a8.93,8.93,0,0,0-5.46,15.1l54.26,55.67A52.68,52.68,0,0,0,468.38,431.79Z" transform="translate(-251 -174.21)"/><path class="cls-2" d="M1050.54,362.42l-5.61-3.1s-6,4.46-11,23.24,9.22.2,9.22.2l6.2-12.82Z" transform="translate(-251 -174.21)"/><path class="cls-2" d="M990.53,534.48s-5.75,27-8.41,34.5c-1.3,3.68-7.58,7-14.54,9.62a97.31,97.31,0,0,1-19.07,5c-7.52.89-104-14.15-150.84-24.33-31.58-6.85-35.67-14.71-35-19.11a6.42,6.42,0,0,1,1.8-3.45s46.44-31.4,62.81-46.44,48.65-3.1,84,3.1S990.53,534.48,990.53,534.48Z" transform="translate(-251 -174.21)"/><path class="cls-2" d="M1044.93,359.32s21.68,14.16-51.31,43.35c0,0-39.67,22.37-34.5,114.5a25.14,25.14,0,0,0,3.67,11.7c7.53,12.39,23.67,43.74-3.23,47.63v7.08s48.66-24.33,54-45.12,23-136.23,31.85-146.85S1060,364.19,1044.93,359.32Z" transform="translate(-251 -174.21)"/><path class="cls-3" d="M967.58,578.6a97.31,97.31,0,0,1-19.07,5c-7.52.89-104-14.15-150.84-24.33-31.58-6.85-35.67-14.71-35-19.11,20.76,7.1,88.18,29.64,112.38,31.5,28.75,2.21,83.68,8.36,87.84,4.18C964.52,574.21,966.16,575.91,967.58,578.6Z" transform="translate(-251 -174.21)"/><path class="cls-2" d="M715,762.72l42-192s7.52-20.34,24.77-19.46l15.92,8s-26.54-6.19-32.29,14.16-42.46,189.31-42.46,189.31Z" transform="translate(-251 -174.21)"/><polygon class="cls-2" points="564.81 500.94 581.62 383.72 589.14 383.72 571.88 500.94 564.81 500.94"/><path class="cls-2" d="M976.82,789.71,960.89,606.58s0-15.48,8-23,33.67-29,33.67-29,6.59-1.55,11.89,13.49,42,165.43,42,165.43l-7.07,3.1-45.56-173.4-31.41,29.64s-6.19,11.06-3.09,21.23,14.59,175.61,14.59,175.61Z" transform="translate(-251 -174.21)"/><polygon class="cls-2" points="676.72 404.95 716.53 416.45 725.37 408.05 702.37 404.95 676.72 404.95"/><path class="cls-4" d="M573.81,256.3l6.46,96.83,141.1-13.71-5.61-94.65a9.53,9.53,0,0,0-10.07-8.94h-.24L582.51,246.18A9.53,9.53,0,0,0,573.81,256.3Z" transform="translate(-251 -174.21)"/><polygon class="cls-4" points="517.7 193.08 377.04 208.42 371.73 209 330.6 182.46 330.6 176.71 470.37 164.12 517.7 193.08"/><polygon class="cls-3" points="377.04 208.42 371.73 209 330.6 182.46 330.6 177.31 377.04 208.42"/><polygon class="cls-5" points="332.36 81.17 337.23 167.42 461.08 155.92 456.66 71.88 332.36 81.17"/><polygon class="cls-3" points="406.23 191.31 421.27 201.48 466.83 197.06 451.35 187.33 406.23 191.31"/><polygon class="cls-5" points="344.75 178.92 363.77 193.08 485.41 181.58 463.74 167.42 344.75 178.92"/><rect class="cls-6" x="560.61" y="48.21" width="89.79" height="89.79"/><rect class="cls-3" x="560.61" y="48.21" width="89.79" height="89.79"/><path class="cls-7" d="M842.53,264s12.67,34.31,0,40.64,45.39,0,45.39,0l16.36-13.19s-36.95-10.56-31.67-34.84S842.53,264,842.53,264Z" transform="translate(-251 -174.21)"/><path class="cls-3" d="M842.53,264s12.67,34.31,0,40.64,45.39,0,45.39,0l16.36-13.19s-36.95-10.56-31.67-34.84S842.53,264,842.53,264Z" transform="translate(-251 -174.21)"/><path class="cls-7" d="M738.56,608.09s47.5,67,39.58,85.5-3.7,30.08-19.53,36.42-20.05,17.94-6.33,17.41,31.67-4.22,34.3-9,9-27.44,17.95-30.61,25.86-15.31,13.72-30.08S775.53,608.55,777.89,603,738.56,608.09,738.56,608.09Z" transform="translate(-251 -174.21)"/><path class="cls-5" d="M837.78,475.62S739.61,482,714.28,505.7s22.16,112.42,27.44,113.47,46.45-3.16,44.86-14.78S757,545.28,757,545.28s36.42-13.19,56.47-16.36S855.72,511,855.72,511Z" transform="translate(-251 -174.21)"/><path class="cls-7" d="M792.92,460.84s1.58,58.58,16.36,60.69,0-44.86,0-44.86l-.53-17.94Z" transform="translate(-251 -174.21)"/><path class="cls-8" d="M837.78,307.25s-27.45-7.91-32.72,13.2-6.86,93.94-6.86,93.94l-9.5,58.06s17.41-5.28,21.11-2.64l22.16-28Z" transform="translate(-251 -174.21)"/><path class="cls-3" d="M837.78,307.25s-27.45-7.91-32.72,13.2-6.86,93.94-6.86,93.94l-9.5,58.06s17.41-5.28,21.11-2.64l22.16-28Z" transform="translate(-251 -174.21)"/><path class="cls-7" d="M875.28,619.33s18.44,36.26,29.53,35.73,21.64-7.39,26.91,14.25-1.05,15.84,5.28,28.5,7.39,34.84-4.75,40.11-23.22,5.81-23.75,0,10.56-5.8-2.11-26.39-39.58-58-50.67-61.75S875.28,619.33,875.28,619.33Z" transform="translate(-251 -174.21)"/><path class="cls-5" d="M923.28,454s38,63.33,13.19,81.8-98.69,53.84-98.69,53.84,39.58,26.91,41.69,35.89-19,33.25-26.39,33.77-29-24.27-52.25-30.61S763.36,577,788.7,560.06s49.08-44.86,49.08-44.86l-7.39-40.63Z" transform="translate(-251 -174.21)"/><path class="cls-7" d="M890.34,242.77c0,22.44-23,41-45.44,41a40.64,40.64,0,0,1,0-81.28C867.35,202.49,890.34,220.32,890.34,242.77Z" transform="translate(-251 -174.21)"/><path class="cls-8" d="M855.2,301.45s36.41-15.84,36.41-17.95,21.11,4.75,25.86,9,7.39,3.7,10.56,12.14S912.2,391.7,912.2,391.7s10.55,60.69,16.36,66.5-47,14.25-47,14.25-34.84,6.33-40.64,9-16.37,6.33-14.25,0,11.08-11.08-4.23-19c0,0,5.28-25.86,0-37.47s-29.55-53.84-10-84.45S841,298.81,841,298.81,847.81,304.61,855.2,301.45Z" transform="translate(-251 -174.21)"/><path class="cls-7" d="M866.81,445.53s-41.17,18.26-53.57,20S763.36,476.67,784,485.12s51.72-4.23,51.72-4.23l43.8-18.47Z" transform="translate(-251 -174.21)"/><path class="cls-3" d="M911.13,299.83s15.2-7.36,19.42,18.51,19,107.66,0,119.8-62.8,31.67-62.8,31.67S841.89,452.39,854,446.06s41.17-24.28,45.39-30.61,8.49-77,1.1-88.64S911.13,299.83,911.13,299.83Z" transform="translate(-251 -174.21)"/><path class="cls-8" d="M904.28,269.25s21.11-1.05,25.33,24.81,19,107.67,0,119.8-62.8,31.67-62.8,31.67S841,428.11,853.08,421.78s41.17-24.28,45.39-30.61-3.16-72.31-10.55-83.92S904.28,269.25,904.28,269.25Z" transform="translate(-251 -174.21)"/><path class="cls-9" d="M834.89,174.71c-6.48.89-13.43,3.26-16.69,8.93-1.59,2.77-2.11,6-3.34,9-3.39,8.15-11.62,13-17.57,19.55-7.75,8.5-11.6,21.32-7,31.88,1.77,4.09,4.65,7.59,6.83,11.48,6.08,10.84,6.4,23.87,6.57,36.3l.34,24.44c.06,3.73.1,7.54-1,11.1s-3.63,6.89-7.19,8A18.63,18.63,0,0,0,817.49,328a19.06,19.06,0,0,1-5.82,16.9c9.67-2.28,17.79-9.32,22.9-17.84s7.48-18.44,8.54-28.33c.57-5.22.76-10.63-.89-15.62-1.16-3.52-3.19-6.67-5.12-9.83-5-8.16-9.43-16.83-11-26.24s0-19.74,6.11-27.07a24.5,24.5,0,0,1,19.32-8.86,21.51,21.51,0,0,1,17.93,11c1.41,2.65,3.42,6.26,6.28,5.32a14.82,14.82,0,0,0,1.55-.76c3.19-1.45,6.81,1.41,8.22,4.63,4.44,10.12-3.74,21.18-4.58,32.2-.79,10.26,4.93,19.93,11.76,27.61A90.72,90.72,0,0,0,937,318.31a12.5,12.5,0,0,1-6.44-4,85.09,85.09,0,0,0,20.76-1.74c-7.43-5.6-14.91-11.24-21.11-18.18s-11.11-15.31-12.44-24.51c-1.8-12.35,2.8-25.73-2.46-37-4.81-10.35-16.73-16.13-21.08-26.68-4.43-10.71-7.29-20-19-24.68C862.46,176.4,848.7,172.84,834.89,174.71Z" transform="translate(-251 -174.21)"/></svg>