<svg id="e9b162a7-313d-4f8d-b0d0-5b52289eb01b" xmlns="http://www.w3.org/2000/svg"
                    viewBox="0 0 312 348.16">
                    <defs>
                        <style>
                            .cls-1 {
                                fill: #fff;
                            }

                            .cls-2 {
                                fill: #51110e;
                            }

                            .cls-3 {
                                fill: #ffb9b9;
                            }

                            .cls-4 {
                                fill: #2f2e41;
                            }

                            .cls-5 {
                                fill: #fea82f;
                            }

                            .cls-6 {
                                fill: #51110e;
                            }

                            .cls-7 {
                                fill: #fea82f;
                            }

                            .cls-8 {
                                fill: #2f2e41;
                            }
                        </style>
                    </defs>
                    <path class="cls-1"
                        d="M340.55,426.13c-43.7,0-79.13-53.87-79.13-120.32s35.43-120.32,79.14-120.32,79.13,53.87,79.13,120.32c0,31.91-8.34,62.52-23.18,85.08S361.55,426.22,340.55,426.13Zm0-239.86c-43.34,0-78.61,53.62-78.61,119.54s35.27,119.54,78.61,119.54,78.62-53.63,78.62-119.54S383.9,186.27,340.55,186.27Z"
                        transform="translate(-184.4 -168.65)" />
                    <path class="cls-2"
                        d="M243.84,169.24s-23.39-7-30.3,27-1.65,51.12-1.65,51.12l52.21-6.48S278.93,179.57,243.84,169.24Z"
                        transform="translate(-184.4 -168.65)" />
                    <path class="cls-3"
                        d="M198.23,354.53l10.67,48.88,2,19.12s-1.3,20,5.71,37.56c.09.24.19.47.28.7,7.34,17.71,6.67,24.08,6.67,24.08h8.66l-1.33-30.46s0-22-3.33-30.46l-2-66.59Z"
                        transform="translate(-184.4 -168.65)" />
                    <path class="cls-3"
                        d="M234.89,364.44l31.32,60.22s6,25.5,12.66,33.29l15.33,33.3,6.67-13.46-18-65.17-16.66-51Z"
                        transform="translate(-184.4 -168.65)" />
                    <path class="cls-4"
                        d="M233.56,481.33l-11.33.71-.67,11.34S200.9,516,214.89,516.75s16-5.66,16-5.66,8-6.38,8-9.21-1.34-11.34-2.67-13.46S233.56,481.33,233.56,481.33Z"
                        transform="translate(-184.4 -168.65)" />
                    <path class="cls-4"
                        d="M303,478.47l-9.82,9.8s7.63,24.17,10.91,23.51,30-23.51,27.26-27.43a4.61,4.61,0,0,0-6.54-1.3s-12,7.18-14.73,3.91Z"
                        transform="translate(-184.4 -168.65)" />
                    <path class="cls-4"
                        d="M200.9,310.6l-6,24.09s-14.66,16.29-9.33,18.42,9.33,0,10,2.83,21.32,9.92,29.32,7.8l4-2.13s2.67,9.21,6.66,8.5,36-.71,35.33-2.83-5.34-9.92-5.34-12-3.33-10.62-3.33-10.62a2.55,2.55,0,0,0,.67-1.42c0-.71-1.33-36.84-1.33-36.84l-54-2.83Z"
                        transform="translate(-184.4 -168.65)" />
                    <ellipse class="cls-3" cx="54.48" cy="36.4" rx="17.33" ry="18.42" />
                    <path class="cls-3"
                        d="M233.22,218.86s2,12.76-5.33,16.3l-7.33,3.54,28.66,23.38,10-29s-10-2.12-9.33-17Z"
                        transform="translate(-184.4 -168.65)" />
                    <path class="cls-5"
                        d="M229.56,237.64s18.43,4.63,25.87-6.54l16.78,2.29-4.67,57.38s.67,31.17-6.66,31.88-4.67-6.38-4.67-6.38-3.33,5-8.66,5-16-4.25-16-4.25-15.33-2.13-20-1.42-24.66,4.25-5.33-16.29c0,0,10-7.08,8.66-9.21s-3.33-11.33-3.33-11.33l.67-39.68L227,235.6Z"
                        transform="translate(-184.4 -168.65)" />
                    <path class="cls-3" d="M204.9,326.9s16,11.33,19.33,2.83-14.67-12-14.67-12l-6.66,2.83Z"
                        transform="translate(-184.4 -168.65)" />
                    <path class="cls-3" d="M255.55,331.86s-20-1.42-16.66,6.37,22,1.42,22,1.42Z"
                        transform="translate(-184.4 -168.65)" />
                    <path class="cls-5"
                        d="M215.56,240.47l-3.33-1.42s-5.33,3.55-10,14.88-13.33,30.46-13.33,30.46-4,.71-2,5,2,3.54.67,5.67-2.67,4.25-1.33,5.67,2.66,1.41,2,4.25-.67,5.66,0,6.37,6,4.25,5.33,6.38-3.33,2.83.66,2.83,5.34,7.09,5.34,7.09l8,1.41s-4.66-9.91,5.34-10.62c0,0-2.67-2.13-2.67-4.25s2-2.13-1.33-2.84-4-1.41-3.34-3.54,1.34-3.54,0-3.54-2.66,2.12-1.33,0-2.66-6.38-2.66-6.38,8-22,13.32-24.08S215.56,240.47,215.56,240.47Z"
                        transform="translate(-184.4 -168.65)" />
                    <path class="cls-5"
                        d="M260.45,234.1l7.38-.71s9.23,1.41,12,9.91,3.69,53.14,3.69,53.14-3.69,2.83-1.85,6.37,2.77,2.84.92,5-5.53,3.54-5.53,6.38,0,4.25-1.85,5-4.61,0-4.61,2.12-8.3,7.08-7.38,8.5,4.61,7.09-8.3,9.92l-4.62,3.54s-5.53-11.33-11.07-11.33c0,0,4.61-.71,3.69-3.55s2.77-4.25,2.77-4.25l15.68-17.71,2.77-9.91L251.23,276.6Z"
                        transform="translate(-184.4 -168.65)" />
                    <path class="cls-6" d="M245.66,179.65s-6.59,18.56-22.73,26.26l-2.63-16.46Z"
                        transform="translate(-184.4 -168.65)" />
                    <ellipse class="cls-3" cx="72.14" cy="34.63" rx="2.22" ry="3.54" />
                    <rect class="cls-5" x="176.33" y="322.88" width="135.67" height="0.96" />
                    <rect class="cls-5" x="176.33" y="298.87" width="135.67" height="0.96" />
                    <ellipse class="cls-7" cx="213.6" cy="262.74" rx="10.77" ry="12.9" />
                    <path class="cls-8"
                        d="M348.49,372.18c0,27.74,46.45,50.24,46.45,50.24V321.93S348.49,344.43,348.49,372.18Z"
                        transform="translate(-184.4 -168.65)" />
                    <path class="cls-7" d="M394.89,292.43V393.59s41.7-22.65,41.7-50.58S394.89,292.43,394.89,292.43Z"
                        transform="translate(-184.4 -168.65)" />
                </svg>